<svg xmlns="http://www.w3.org/2000/svg" xmlns:xlink="http://www.w3.org/1999/xlink" version="1.1" baseProfile="full" width="600" height="400" style="position:absolute;left:0;top:0;user-select:none"><rect width="600" height="400" x="0" y="0" id="0" fill="none"></rect><g><path d="M415.1354 166.1793L443.9192 157.7241L458.9192 157.7241" fill="none" stroke="#ee6666"></path><path d="M319.1935 318.4551L323.9919 348.0689L338.9919 348.0689" fill="none" stroke="#91cc75"></path><path d="M229.2754 296.9435L211.5943 346.6718L196.5943 346.6718" fill="none" stroke="#73c0de"></path><path d="M183.8082 229.991L172.3751 287.5718L157.3751 287.5718" fill="none" stroke="#3ba272"></path><path d="M186.9544 159.7421L156.7404 228.4718L141.7404 228.4718" fill="none" stroke="#fc8452"></path><path d="M217.2002 113.1427L158.1297 169.3718L143.1297 169.3718" fill="none" stroke="#9a60b4"></path><path d="M251.5414 90.2195L184.4764 110.2718L169.4764 110.2718" fill="none" stroke="#ea7ccc"></path><path d="M285.0301 80.9374L281.2876 51.1718L266.2876 51.1718" fill="none" stroke="#5470c6"></path><path d="M300 140A60 60 0 1 1 294.1073 259.7099L300 200Z" fill="#5470c6"></path><path d="M294.1073 259.7099A60 60 0 0 1 240.6706 191.0545L300 200Z" fill="#91cc75"></path><path d="M300 80A120 120 0 0 1 364.8994 300.936L348.6746 275.702A90 90 0 0 0 300 110Z" fill="#ee6666"></path><path d="M364.8994 300.936A120 120 0 0 1 270.2941 316.265L277.7205 287.1988A90 90 0 0 0 348.6746 275.702Z" fill="#91cc75"></path><path d="M270.2941 316.265A120 120 0 0 1 198.354 263.7815L223.7655 247.8362A90 90 0 0 0 277.7205 287.1988Z" fill="#73c0de"></path><path d="M198.354 263.7815A120 120 0 0 1 180.1826 193.3817L210.137 195.0363A90 90 0 0 0 223.7655 247.8362Z" fill="#3ba272"></path><path d="M180.1826 193.3817A120 120 0 0 1 202.9699 129.3944L227.2274 147.0458A90 90 0 0 0 210.137 195.0363Z" fill="#fc8452"></path><path d="M202.9699 129.3944A120 120 0 0 1 234.1136 99.7055L250.5852 124.7792A90 90 0 0 0 227.2274 147.0458Z" fill="#9a60b4"></path><path d="M234.1136 99.7055A120 120 0 0 1 270.2941 83.735L277.7205 112.8012A90 90 0 0 0 250.5852 124.7792Z" fill="#ea7ccc"></path><path d="M270.2941 83.735A120 120 0 0 1 300 80L300 110A90 90 0 0 0 277.7205 112.8012Z" fill="#5470c6"></path><text dominant-baseline="central" text-anchor="middle" style="font-size:14px;font-family:sans-serif;" xml:space="preserve" transform="translate(332.9601 201.6225)" fill="#eee" stroke="#5470c6" stroke-width="2" paint-order="stroke" stroke-miterlimit="2">Search Engine</text><text dominant-baseline="central" text-anchor="middle" style="font-size:14px;font-family:sans-serif;" transform="translate(273.9584 220.269)" fill="#333">Direct</text><path d="M4 -27.5L108.835 -27.5A4 4 0 0 1 112.835 -23.5L112.835 23.5A4 4 0 0 1 108.835 27.5L4 27.5A4 4 0 0 1 0 23.5L0 -23.5A4 4 0 0 1 4 -27.5" transform="translate(463.9192 157.7241)" fill="#F6F8FC" stroke="#8C8D8E" stroke-width="2" paint-order="stroke"></path><path d="M21.4136 -22.5l70.0078 0l0 12l-70.0078 0Z" transform="translate(463.9192 157.7241)" fill="none"></path><text dominant-baseline="central" text-anchor="middle" style="font-size:12px;font-family:sans-serif;" xml:space="preserve" x="56.41748046875" y="-16.5" transform="translate(463.9192 157.7241)" fill="#6E7079">Access From</text><path d="M0 -5.5l112.835 0l0 0l-112.835 0Z" transform="translate(463.9192 157.7241)" fill="none" stroke="#8C8D8E"></path><text dominant-baseline="central" text-anchor="start" style="font: normal normal 12px sans-serif" xml:space="preserve" y="11" transform="translate(463.9192 157.7241)" fill="#333">  </text><path d="M6.668 4l24.1104 0l0 14l-24.1104 0Z" transform="translate(463.9192 157.7241)" fill="none"></path><text dominant-baseline="central" text-anchor="start" style="font-size:14px;font-family:sans-serif;font-weight:bold;" x="6.66796875" y="11" transform="translate(463.9192 157.7241)" fill="#4C5058">A：</text><text dominant-baseline="central" text-anchor="start" style="font: normal normal 12px sans-serif" xml:space="preserve" x="30.7783203125" y="11" transform="translate(463.9192 157.7241)" fill="#333">1048  </text><path d="M68.1416 2L102.167 2A4 4 0 0 1 106.167 6L106.167 16A4 4 0 0 1 102.167 20L68.1416 20A4 4 0 0 1 64.1416 16L64.1416 6A4 4 0 0 1 68.1416 2" transform="translate(463.9192 157.7241)" fill="#4C5058"></path><text dominant-baseline="central" text-anchor="start" style="font-size:12px;font-family:sans-serif;" x="68.1416015625" y="11" transform="translate(463.9192 157.7241)" fill="#fff">40.9%</text><text dominant-baseline="central" text-anchor="start" style="font: normal normal 12px sans-serif" xml:space="preserve" x="106.1669921875" y="11" transform="translate(463.9192 157.7241)" fill="#333">  </text><path d="M4 -27.5L138.4072 -27.5A4 4 0 0 1 142.4072 -23.5L142.4072 23.5A4 4 0 0 1 138.4072 27.5L4 27.5A4 4 0 0 1 0 23.5L0 -23.5A4 4 0 0 1 4 -27.5" transform="translate(343.9919 348.0689)" fill="#F6F8FC" stroke="#8C8D8E" stroke-width="2" paint-order="stroke"></path><path d="M36.1997 -22.5l70.0078 0l0 12l-70.0078 0Z" transform="translate(343.9919 348.0689)" fill="none"></path><text dominant-baseline="central" text-anchor="middle" style="font-size:12px;font-family:sans-serif;" xml:space="preserve" x="71.20361328125" y="-16.5" transform="translate(343.9919 348.0689)" fill="#6E7079">Access From</text><path d="M0 -5.5l142.4072 0l0 0l-142.4072 0Z" transform="translate(343.9919 348.0689)" fill="none" stroke="#8C8D8E"></path><text dominant-baseline="central" text-anchor="start" style="font: normal normal 12px sans-serif" xml:space="preserve" y="11" transform="translate(343.9919 348.0689)" fill="#333">  </text><path d="M6.668 4l53.6826 0l0 14l-53.6826 0Z" transform="translate(343.9919 348.0689)" fill="none"></path><text dominant-baseline="central" text-anchor="start" style="font-size:14px;font-family:sans-serif;font-weight:bold;" x="6.66796875" y="11" transform="translate(343.9919 348.0689)" fill="#4C5058">Direct：</text><text dominant-baseline="central" text-anchor="start" style="font: normal normal 12px sans-serif" xml:space="preserve" x="60.3505859375" y="11" transform="translate(343.9919 348.0689)" fill="#333">335  </text><path d="M91.04 2L131.7393 2A4 4 0 0 1 135.7393 6L135.7393 16A4 4 0 0 1 131.7393 20L91.04 20A4 4 0 0 1 87.04 16L87.04 6A4 4 0 0 1 91.04 2" transform="translate(343.9919 348.0689)" fill="#4C5058"></path><text dominant-baseline="central" text-anchor="start" style="font-size:12px;font-family:sans-serif;" x="91.0400390625" y="11" transform="translate(343.9919 348.0689)" fill="#fff">13.08%</text><text dominant-baseline="central" text-anchor="start" style="font: normal normal 12px sans-serif" xml:space="preserve" x="135.7392578125" y="11" transform="translate(343.9919 348.0689)" fill="#333">  </text><path d="M-129.4023 -27.5L-4 -27.5A4 4 0 0 1 0 -23.5L0 23.5A4 4 0 0 1 -4 27.5L-129.4023 27.5A4 4 0 0 1 -133.4023 23.5L-133.4023 -23.5A4 4 0 0 1 -129.4023 -27.5" transform="translate(191.5943 346.6718)" fill="#F6F8FC" stroke="#8C8D8E" stroke-width="2" paint-order="stroke"></path><path d="M-101.7051 -22.5l70.0078 0l0 12l-70.0078 0Z" transform="translate(191.5943 346.6718)" fill="none"></path><text dominant-baseline="central" text-anchor="middle" style="font-size:12px;font-family:sans-serif;" xml:space="preserve" x="-66.701171875" y="-16.5" transform="translate(191.5943 346.6718)" fill="#6E7079">Access From</text><path d="M-133.4023 -5.5l133.4023 0l0 0l-133.4023 0Z" transform="translate(191.5943 346.6718)" fill="none" stroke="#8C8D8E"></path><text dominant-baseline="central" text-anchor="end" style="font: normal normal 12px sans-serif" xml:space="preserve" y="11" transform="translate(191.5943 346.6718)" fill="#333">  </text><path d="M-44.6934 2L-10.668 2A4 4 0 0 1 -6.668 6L-6.668 16A4 4 0 0 1 -10.668 20L-44.6934 20A4 4 0 0 1 -48.6934 16L-48.6934 6A4 4 0 0 1 -44.6934 2" transform="translate(191.5943 346.6718)" fill="#4C5058"></path><text dominant-baseline="central" text-anchor="end" style="font-size:12px;font-family:sans-serif;" x="-10.66796875" y="11" transform="translate(191.5943 346.6718)" fill="#fff">12.1%</text><text dominant-baseline="central" text-anchor="end" style="font: normal normal 12px sans-serif" xml:space="preserve" x="-48.693359375" y="11" transform="translate(191.5943 346.6718)" fill="#333">310  </text><path d="M-126.7344 4l51.3516 0l0 14l-51.3516 0Z" transform="translate(191.5943 346.6718)" fill="none"></path><text dominant-baseline="central" text-anchor="end" style="font-size:14px;font-family:sans-serif;font-weight:bold;" x="-75.3828125" y="11" transform="translate(191.5943 346.6718)" fill="#4C5058">Email：</text><text dominant-baseline="central" text-anchor="end" style="font: normal normal 12px sans-serif" xml:space="preserve" x="-126.734375" y="11" transform="translate(191.5943 346.6718)" fill="#333">  </text><path d="M-95.4873 -27.5L-4 -27.5A4 4 0 0 1 0 -23.5L0 23.5A4 4 0 0 1 -4 27.5L-95.4873 27.5A4 4 0 0 1 -99.4873 23.5L-99.4873 -23.5A4 4 0 0 1 -95.4873 -27.5" transform="translate(152.3751 287.5718)" fill="#F6F8FC" stroke="#8C8D8E" stroke-width="2" paint-order="stroke"></path><path d="M-84.7476 -22.5l70.0078 0l0 12l-70.0078 0Z" transform="translate(152.3751 287.5718)" fill="none"></path><text dominant-baseline="central" text-anchor="middle" style="font-size:12px;font-family:sans-serif;" xml:space="preserve" x="-49.74365234375" y="-16.5" transform="translate(152.3751 287.5718)" fill="#6E7079">Access From</text><path d="M-99.4873 -5.5l99.4873 0l0 0l-99.4873 0Z" transform="translate(152.3751 287.5718)" fill="none" stroke="#8C8D8E"></path><text dominant-baseline="central" text-anchor="end" style="font: normal normal 12px sans-serif" xml:space="preserve" y="11" transform="translate(152.3751 287.5718)" fill="#333">  </text><path d="M-38.0195 2L-10.668 2A4 4 0 0 1 -6.668 6L-6.668 16A4 4 0 0 1 -10.668 20L-38.0195 20A4 4 0 0 1 -42.0195 16L-42.0195 6A4 4 0 0 1 -38.0195 2" transform="translate(152.3751 287.5718)" fill="#4C5058"></path><text dominant-baseline="central" text-anchor="end" style="font-size:12px;font-family:sans-serif;" x="-10.66796875" y="11" transform="translate(152.3751 287.5718)" fill="#fff">9.8%</text><text dominant-baseline="central" text-anchor="end" style="font: normal normal 12px sans-serif" xml:space="preserve" x="-42.01953125" y="11" transform="translate(152.3751 287.5718)" fill="#333">251  </text><path d="M-92.8193 4l24.1104 0l0 14l-24.1104 0Z" transform="translate(152.3751 287.5718)" fill="none"></path><text dominant-baseline="central" text-anchor="end" style="font-size:14px;font-family:sans-serif;font-weight:bold;" x="-68.708984375" y="11" transform="translate(152.3751 287.5718)" fill="#4C5058">B：</text><text dominant-baseline="central" text-anchor="end" style="font: normal normal 12px sans-serif" xml:space="preserve" x="-92.8193359375" y="11" transform="translate(152.3751 287.5718)" fill="#333">  </text><path d="M-122.7404 -27.5L-4 -27.5A4 4 0 0 1 0 -23.5L0 23.5A4 4 0 0 1 -4 27.5L-122.7404 27.5A4 4 0 0 1 -126.7404 23.5L-126.7404 -23.5A4 4 0 0 1 -122.7404 -27.5" transform="translate(136.7404 228.4718)" fill="#F6F8FC" stroke="#8C8D8E" stroke-width="2" paint-order="stroke"></path><path d="M-98.3741 -22.5l70.0078 0l0 12l-70.0078 0Z" transform="translate(136.7404 228.4718)" fill="none"></path><text dominant-baseline="central" text-anchor="middle" style="font-size:12px;font-family:sans-serif;" xml:space="preserve" x="-63.37019070983324" y="-16.5" transform="translate(136.7404 228.4718)" fill="#6E7079">Access From</text><path d="M-126.7404 -5.5l126.7404 0l0 0l-126.7404 0Z" transform="translate(136.7404 228.4718)" fill="none" stroke="#8C8D8E"></path><path d="M-4 2A4 4 0 0 1 0 6L0 16A4 4 0 0 1 -4 20L-4 20A4 4 0 0 1 -8 16L-8 6A4 4 0 0 1 -4 2" transform="translate(136.7404 228.4718)" fill="#4C5058"></path><text dominant-baseline="central" text-anchor="end" style="font: normal normal 12px sans-serif" xml:space="preserve" x="-8" y="11" transform="translate(136.7404 228.4718)" fill="#333">234  </text><path d="M-118.6826 4l83.9932 0l0 14l-83.9932 0Z" transform="translate(136.7404 228.4718)" fill="none"></path><text dominant-baseline="central" text-anchor="end" style="font-size:14px;font-family:sans-serif;font-weight:bold;" xml:space="preserve" x="-34.689453125" y="11" transform="translate(136.7404 228.4718)" fill="#4C5058">Union Ads：</text><text dominant-baseline="central" text-anchor="end" style="font: normal normal 12px sans-serif" xml:space="preserve" x="-118.6826171875" y="11" transform="translate(136.7404 228.4718)" fill="#333">  </text><path d="M-102.1611 -27.5L-4 -27.5A4 4 0 0 1 0 -23.5L0 23.5A4 4 0 0 1 -4 27.5L-102.1611 27.5A4 4 0 0 1 -106.1611 23.5L-106.1611 -23.5A4 4 0 0 1 -102.1611 -27.5" transform="translate(138.1297 169.3718)" fill="#F6F8FC" stroke="#8C8D8E" stroke-width="2" paint-order="stroke"></path><path d="M-88.0845 -22.5l70.0078 0l0 12l-70.0078 0Z" transform="translate(138.1297 169.3718)" fill="none"></path><text dominant-baseline="central" text-anchor="middle" style="font-size:12px;font-family:sans-serif;" xml:space="preserve" x="-53.08056640625" y="-16.5" transform="translate(138.1297 169.3718)" fill="#6E7079">Access From</text><path d="M-106.1611 -5.5l106.1611 0l0 0l-106.1611 0Z" transform="translate(138.1297 169.3718)" fill="none" stroke="#8C8D8E"></path><text dominant-baseline="central" text-anchor="end" style="font: normal normal 12px sans-serif" xml:space="preserve" y="11" transform="translate(138.1297 169.3718)" fill="#333">  </text><path d="M-44.6934 2L-10.668 2A4 4 0 0 1 -6.668 6L-6.668 16A4 4 0 0 1 -10.668 20L-44.6934 20A4 4 0 0 1 -48.6934 16L-48.6934 6A4 4 0 0 1 -44.6934 2" transform="translate(138.1297 169.3718)" fill="#4C5058"></path><text dominant-baseline="central" text-anchor="end" style="font-size:12px;font-family:sans-serif;" x="-10.66796875" y="11" transform="translate(138.1297 169.3718)" fill="#fff">5.74%</text><text dominant-baseline="central" text-anchor="end" style="font: normal normal 12px sans-serif" xml:space="preserve" x="-48.693359375" y="11" transform="translate(138.1297 169.3718)" fill="#333">147  </text><path d="M-99.4932 4l24.1104 0l0 14l-24.1104 0Z" transform="translate(138.1297 169.3718)" fill="none"></path><text dominant-baseline="central" text-anchor="end" style="font-size:14px;font-family:sans-serif;font-weight:bold;" x="-75.3828125" y="11" transform="translate(138.1297 169.3718)" fill="#4C5058">C：</text><text dominant-baseline="central" text-anchor="end" style="font: normal normal 12px sans-serif" xml:space="preserve" x="-99.4931640625" y="11" transform="translate(138.1297 169.3718)" fill="#333">  </text><path d="M-150.4764 -27.5L-4 -27.5A4 4 0 0 1 0 -23.5L0 23.5A4 4 0 0 1 -4 27.5L-150.4764 27.5A4 4 0 0 1 -154.4764 23.5L-154.4764 -23.5A4 4 0 0 1 -150.4764 -27.5" transform="translate(164.4764 110.2718)" fill="#F6F8FC" stroke="#8C8D8E" stroke-width="2" paint-order="stroke"></path><path d="M-112.2421 -22.5l70.0078 0l0 12l-70.0078 0Z" transform="translate(164.4764 110.2718)" fill="none"></path><text dominant-baseline="central" text-anchor="middle" style="font-size:12px;font-family:sans-serif;" xml:space="preserve" x="-77.23818346917498" y="-16.5" transform="translate(164.4764 110.2718)" fill="#6E7079">Access From</text><path d="M-154.4764 -5.5l154.4764 0l0 0l-154.4764 0Z" transform="translate(164.4764 110.2718)" fill="none" stroke="#8C8D8E"></path><path d="M-38.0254 2L-4 2A4 4 0 0 1 0 6L0 16A4 4 0 0 1 -4 20L-38.0254 20A4 4 0 0 1 -42.0254 16L-42.0254 6A4 4 0 0 1 -38.0254 2" transform="translate(164.4764 110.2718)" fill="#4C5058"></path><text dominant-baseline="central" text-anchor="end" style="font-size:12px;font-family:sans-serif;" x="-4" y="11" transform="translate(164.4764 110.2718)" fill="#fff">5.27%</text><text dominant-baseline="central" text-anchor="end" style="font: normal normal 12px sans-serif" xml:space="preserve" x="-42.025390625" y="11" transform="translate(164.4764 110.2718)" fill="#333">135  </text><path d="M-150.917 4l82.2021 0l0 14l-82.2021 0Z" transform="translate(164.4764 110.2718)" fill="none"></path><text dominant-baseline="central" text-anchor="end" style="font-size:14px;font-family:sans-serif;font-weight:bold;" xml:space="preserve" x="-68.71484375" y="11" transform="translate(164.4764 110.2718)" fill="#4C5058">Video Ads：</text><text dominant-baseline="central" text-anchor="end" style="font: normal normal 12px sans-serif" xml:space="preserve" x="-150.9169921875" y="11" transform="translate(164.4764 110.2718)" fill="#333">  </text><path d="M-137.1748 -27.5L-4 -27.5A4 4 0 0 1 0 -23.5L0 23.5A4 4 0 0 1 -4 27.5L-137.1748 27.5A4 4 0 0 1 -141.1748 23.5L-141.1748 -23.5A4 4 0 0 1 -137.1748 -27.5" transform="translate(261.2876 51.1718)" fill="#F6F8FC" stroke="#8C8D8E" stroke-width="2" paint-order="stroke"></path><path d="M-105.5913 -22.5l70.0078 0l0 12l-70.0078 0Z" transform="translate(261.2876 51.1718)" fill="none"></path><text dominant-baseline="central" text-anchor="middle" style="font-size:12px;font-family:sans-serif;" xml:space="preserve" x="-70.58740234375" y="-16.5" transform="translate(261.2876 51.1718)" fill="#6E7079">Access From</text><path d="M-141.1748 -5.5l141.1748 0l0 0l-141.1748 0Z" transform="translate(261.2876 51.1718)" fill="none" stroke="#8C8D8E"></path><text dominant-baseline="central" text-anchor="end" style="font: normal normal 12px sans-serif" xml:space="preserve" y="11" transform="translate(261.2876 51.1718)" fill="#333">  </text><path d="M-44.6934 2L-10.668 2A4 4 0 0 1 -6.668 6L-6.668 16A4 4 0 0 1 -10.668 20L-44.6934 20A4 4 0 0 1 -48.6934 16L-48.6934 6A4 4 0 0 1 -44.6934 2" transform="translate(261.2876 51.1718)" fill="#4C5058"></path><text dominant-baseline="central" text-anchor="end" style="font-size:12px;font-family:sans-serif;" x="-10.66796875" y="11" transform="translate(261.2876 51.1718)" fill="#fff">3.98%</text><text dominant-baseline="central" text-anchor="end" style="font: normal normal 12px sans-serif" xml:space="preserve" x="-48.693359375" y="11" transform="translate(261.2876 51.1718)" fill="#333">102  </text><path d="M-134.5068 4l59.124 0l0 14l-59.124 0Z" transform="translate(261.2876 51.1718)" fill="none"></path><text dominant-baseline="central" text-anchor="end" style="font-size:14px;font-family:sans-serif;font-weight:bold;" x="-75.3828125" y="11" transform="translate(261.2876 51.1718)" fill="#4C5058">Others：</text><text dominant-baseline="central" text-anchor="end" style="font: normal normal 12px sans-serif" xml:space="preserve" x="-134.5068359375" y="11" transform="translate(261.2876 51.1718)" fill="#333">  </text><path d="M240.6706 191.0545A60 60 0 0 1 300 140L300 200Z" transform="translate(-6.5227 -7.5799)" fill="#fac858"></path><text dominant-baseline="central" text-anchor="middle" style="font-size:14px;font-family:sans-serif;" transform="translate(271.9525 167.4065)" fill="#333">Marketing</text><path d="M-5 -5l590.6055 0l0 48l-590.6055 0Z" transform="translate(9.6973 5)" fill="rgb(0,0,0)" fill-opacity="0" stroke="#ccc" stroke-width="0"></path><path d="M3.5 0L21.5 0A3.5 3.5 0 0 1 25 3.5L25 10.5A3.5 3.5 0 0 1 21.5 14L3.5 14A3.5 3.5 0 0 1 0 10.5L0 3.5A3.5 3.5 0 0 1 3.5 0" transform="translate(9.6973 5)" fill="#91cc75"></path><text dominant-baseline="central" text-anchor="start" style="font-size:12px;font-family:sans-serif;" x="30" y="7" transform="translate(9.6973 5)" fill="#333">Direct</text><path d="M3.5 0L21.5 0A3.5 3.5 0 0 1 25 3.5L25 10.5A3.5 3.5 0 0 1 21.5 14L3.5 14A3.5 3.5 0 0 1 0 10.5L0 3.5A3.5 3.5 0 0 1 3.5 0" transform="translate(81.0332 5)" fill="#fac858"></path><text dominant-baseline="central" text-anchor="start" style="font-size:12px;font-family:sans-serif;" x="30" y="7" transform="translate(81.0332 5)" fill="#333">Marketing</text><path d="M3.5 0L21.5 0A3.5 3.5 0 0 1 25 3.5L25 10.5A3.5 3.5 0 0 1 21.5 14L3.5 14A3.5 3.5 0 0 1 0 10.5L0 3.5A3.5 3.5 0 0 1 3.5 0" transform="translate(173.7207 5)" fill="#5470c6"></path><text dominant-baseline="central" text-anchor="start" style="font-size:12px;font-family:sans-serif;" xml:space="preserve" x="30" y="7" transform="translate(173.7207 5)" fill="#333">Search Engine</text><path d="M3.5 0L21.5 0A3.5 3.5 0 0 1 25 3.5L25 10.5A3.5 3.5 0 0 1 21.5 14L3.5 14A3.5 3.5 0 0 1 0 10.5L0 3.5A3.5 3.5 0 0 1 3.5 0" transform="translate(292.4414 5)" fill="#73c0de"></path><text dominant-baseline="central" text-anchor="start" style="font-size:12px;font-family:sans-serif;" x="30" y="7" transform="translate(292.4414 5)" fill="#333">Email</text><path d="M3.5 0L21.5 0A3.5 3.5 0 0 1 25 3.5L25 10.5A3.5 3.5 0 0 1 21.5 14L3.5 14A3.5 3.5 0 0 1 0 10.5L0 3.5A3.5 3.5 0 0 1 3.5 0" transform="translate(362.4473 5)" fill="#fc8452"></path><text dominant-baseline="central" text-anchor="start" style="font-size:12px;font-family:sans-serif;" xml:space="preserve" x="30" y="7" transform="translate(362.4473 5)" fill="#333">Union Ads</text><path d="M3.5 0L21.5 0A3.5 3.5 0 0 1 25 3.5L25 10.5A3.5 3.5 0 0 1 21.5 14L3.5 14A3.5 3.5 0 0 1 0 10.5L0 3.5A3.5 3.5 0 0 1 3.5 0" transform="translate(457.8125 5)" fill="#ea7ccc"></path><text dominant-baseline="central" text-anchor="start" style="font-size:12px;font-family:sans-serif;" xml:space="preserve" x="30" y="7" transform="translate(457.8125 5)" fill="#333">Video Ads</text><path d="M3.5 0L21.5 0A3.5 3.5 0 0 1 25 3.5L25 10.5A3.5 3.5 0 0 1 21.5 14L3.5 14A3.5 3.5 0 0 1 0 10.5L0 3.5A3.5 3.5 0 0 1 3.5 0" transform="translate(552.2988 5)" fill="#ee6666"></path><text dominant-baseline="central" text-anchor="start" style="font-size:12px;font-family:sans-serif;" x="30" y="7" transform="translate(552.2988 5)" fill="#333">A</text><path d="M3.5 0L21.5 0A3.5 3.5 0 0 1 25 3.5L25 10.5A3.5 3.5 0 0 1 21.5 14L3.5 14A3.5 3.5 0 0 1 0 10.5L0 3.5A3.5 3.5 0 0 1 3.5 0" transform="translate(9.6973 29)" fill="#3ba272"></path><text dominant-baseline="central" text-anchor="start" style="font-size:12px;font-family:sans-serif;" x="30" y="7" transform="translate(9.6973 29)" fill="#333">B</text><path d="M3.5 0L21.5 0A3.5 3.5 0 0 1 25 3.5L25 10.5A3.5 3.5 0 0 1 21.5 14L3.5 14A3.5 3.5 0 0 1 0 10.5L0 3.5A3.5 3.5 0 0 1 3.5 0" transform="translate(57.7012 29)" fill="#9a60b4"></path><text dominant-baseline="central" text-anchor="start" style="font-size:12px;font-family:sans-serif;" x="30" y="7" transform="translate(57.7012 29)" fill="#333">C</text><path d="M3.5 0L21.5 0A3.5 3.5 0 0 1 25 3.5L25 10.5A3.5 3.5 0 0 1 21.5 14L3.5 14A3.5 3.5 0 0 1 0 10.5L0 3.5A3.5 3.5 0 0 1 3.5 0" transform="translate(106.3672 29)" fill="#5470c6"></path><text dominant-baseline="central" text-anchor="start" style="font-size:12px;font-family:sans-serif;" x="30" y="7" transform="translate(106.3672 29)" fill="#333">Others</text></g></svg>